<svg width="331" height="198" viewBox="0 0 331 198" fill="none" xmlns="http://www.w3.org/2000/svg">
<path fill-rule="evenodd" clip-rule="evenodd" d="M167.87 14.0107C159.21 14.2316 149.361 17.8043 144.285 23.9594C138.098 31.4627 137.165 43.5013 139.958 51.1009C140.508 52.5984 141.576 54.1017 142.912 55.5549C143.465 55.6405 144.018 55.7482 144.566 55.882C142.879 51.6897 143.573 47.0775 145.256 43.0032C145.947 50.2621 153.329 53.5489 158.469 57.0132C157.503 52.9316 157.437 48.5277 158.287 44.3524C155.778 36.4346 158.992 28.7258 164.531 27.4396C165.623 27.186 166.677 27.0727 167.684 27.0865C174.733 27.1826 179.505 33.495 179.33 41.3579C179.273 43.8931 177.559 46.8143 174.965 49.9004C178.322 54.8548 182.817 59.0632 187.175 63.2054C188.345 61.6563 189.338 60.1231 190.08 58.6164C195.633 47.3468 198.056 39.1538 194.548 30.501C191.04 21.8482 182.9 15.9222 173.326 14.3563C172.129 14.1606 170.875 14.0469 169.584 14.0119C169.019 13.9966 168.447 13.9959 167.87 14.0107ZM161.207 39.2777C159.069 42.5932 158.12 54.0784 159.961 57.2163C160.852 57.5716 167.799 62.427 166.73 65.9794C165.246 60.5917 147.072 53.783 145.291 47.3296C144.043 51.178 145.647 55.3226 146.597 57.6909C146.597 57.6909 140.539 55.7953 136.026 56.9202C141.311 58.9924 143.034 64.6178 143.034 64.6178C137.768 68.328 135.625 70.3285 127.236 75.7484C141.777 73.0588 136.718 81.5876 135.729 90.4312C140.836 84.9842 149.995 79.0261 157.122 76.6579C153.015 76.4386 149.781 76.9778 146.96 77.2563C151.355 73.0526 160.08 70.3607 169.166 70.1831C164.89 71.1305 156.549 71.8963 152.51 75.4486C152.51 75.4486 161.386 74.2681 164.058 75.689C158 77.1691 154.675 83.2078 154.378 84.8063C165.544 82.7933 171.423 90.6083 164.415 98.6603C166.909 99.3708 169.462 96.5887 170.116 95.7599C170.175 96.7072 170.888 97.5946 171.838 98.1275C171.838 98.1275 170.828 98.6607 169.759 98.4831C169.403 99.9632 165.721 103.693 165.721 103.693C169.314 103.19 171.898 101.681 173.821 99.468C176.753 99.0906 178.016 97.8906 178.669 96.7065C173.324 96.8841 174.214 92.0294 174.57 90.0757C171.541 90.7861 171.898 84.6286 172.492 82.2604L165.959 81.3138C170.413 78.8272 181.638 80.1297 182.529 80.781C183.301 81.6691 182.766 83.2676 182.766 83.2676C183.954 82.5571 184.726 83.2676 184.726 83.2676C184.726 83.2676 183.063 85.8131 181.578 86.5236C187.933 88.5366 191.081 89.4253 191.794 94.7539C198.149 92.3264 201.178 81.1952 200.465 78.7678C199.159 80.9584 197.792 82.0243 195.832 82.4387C195.832 81.0178 193.694 78.5314 193.041 78.5906C193.991 76.5184 192.625 70.1832 191.912 69.3543C179.262 58.1052 168.632 46.6786 170.295 40.6988C167.741 44.4879 169.601 53.4477 170.77 54.4932C171.938 55.5386 183.658 66.5708 183.42 67.2221C183.42 67.2221 162.158 51.6517 161.207 39.2777ZM165.721 56.0914L174.215 64.3812L172.789 64.9139L165.721 56.0914ZM236.939 62.2613C229.899 62.2613 221.437 69.7893 219.686 72.4801C219.686 72.4801 222.13 67.0617 224.61 63.68C217.68 66.1163 207.357 81.6438 206.627 85.862C214.563 74.3061 238.897 61.0002 247.81 77.4248C252.005 74.5157 255.36 72.3703 266.595 74.5157C250.801 61.4249 239.129 63.2066 231.651 67.6792C232.672 64.1156 235.115 63.3522 236.939 62.2613ZM176.946 67.0449C179.916 67.2225 184.488 74.3868 187.398 74.9196C184.072 75.2748 182.886 77.1101 182.886 77.1101L176.649 71.2486C177.184 69.8869 177.303 68.1698 176.946 67.0449ZM233.806 72.3117C232.476 72.3117 231.105 72.4358 229.732 72.6746C222.409 73.9488 218.365 77.5246 209.766 85.6179C206.603 88.5952 203.369 93.1899 200.07 98.2267C203.313 100.611 206.322 103.368 209.415 106.007C213.831 94.289 222.855 80.8512 228.476 77.8237C234.241 74.7184 237.83 74.484 245.788 79.2162C244.582 74.541 239.571 72.303 233.806 72.3117ZM157.806 77.5611C157.732 77.5763 157.529 77.685 157.145 77.9216C150.683 80.7298 144.483 84.16 139.088 88.8713C136.249 91.3499 133.885 96.9794 134.158 92.4916C133.749 93.2375 133.396 93.9641 133.116 94.6646C129.363 104.519 126.195 119.452 131.441 130.157C136.687 140.861 149.761 149.416 160.9 150.895C172.039 152.375 181.522 147.673 190.36 140.178C195.334 135.96 199.281 129.729 202.543 122.961C198.866 119.186 194.917 115.62 191.061 111.981C188.258 116.015 185.417 119.65 182.541 122.224C173.043 130.724 163.209 132.582 156.432 125.704C149.656 118.826 150.362 102.821 157.829 92.717C159.202 90.8595 160.977 88.9121 162.987 86.9026C160.048 85.335 155.771 85.5976 152.713 86.3711C153.024 83.9114 154.203 81.67 155.761 79.7738C156.025 79.177 158.126 77.4942 157.806 77.5611ZM135.889 79.2411C127.812 83.0303 121.178 98.779 121 101.798C121.475 100.792 123.97 99.194 125.514 99.1347C119.575 115.772 124.8 135.902 133.175 143.48C131.333 139.336 131.988 138.414 133.948 136.934C120.941 122.251 129.968 94.6607 134.482 90.1611C134.423 88.6843 136.363 80.9345 135.889 79.2411ZM176.115 83.6219C174.155 90.3122 180.783 94.2422 182.944 95.5827C185.105 96.9232 183.112 102.59 186.032 105.351C188.953 108.112 200.397 119.162 205.691 124.119C210.986 129.076 202.425 145.966 216.976 149.933C212.343 143.775 213.412 139.453 216.5 134.894C218.044 152.301 239.544 161.36 254.689 145.671C249.581 146.618 239.544 147.209 238.89 141.052C251.422 151.768 283.73 118.14 241.325 108.252C255.994 119.087 244.057 128.382 232.654 126.961C237.465 123.409 238.891 110.562 231.17 106.95C230.101 130.81 202.838 100.989 199.098 98.9564C195.358 96.9239 189.877 102.734 187.206 91.7272C182.157 91.4903 178.372 89.4833 176.115 83.6219ZM194.848 102.8C194.848 102.8 214.769 115.371 219.552 118.144C224.335 120.917 230.994 119.996 233.238 112.693C233.911 120.762 223.784 122.723 219.106 119.487C214.428 116.251 194.848 102.8 194.848 102.8ZM200.98 111.765C200.98 111.765 220.141 125.119 231.513 130.983C242.885 136.848 256.019 127.568 251.696 116.557C259.227 126.159 244.118 139.549 230.68 132.604C228.008 131.222 225.227 129.562 222.482 127.795C223.078 130.94 225.158 137.245 226.168 138.988C228.374 142.797 236.021 150.901 245.889 147.897C239.066 152.888 228.188 146.533 224.83 140.228C221.811 134.559 222.004 128.595 219.653 125.929C209.707 119.213 200.98 111.765 200.98 111.765Z" fill="#cbd5e1" stroke="#cbd5e1" stroke-width="1.06667"/>
<path d="M38.8184 52.4863C44.1406 51.8516 49.7559 51.5342 55.6641 51.5342C62.1582 51.5342 67.9688 52.5596 73.0957 54.6104C78.2715 56.6611 82.4463 59.2979 85.6201 62.5205C88.8428 65.6943 91.4795 69.4541 93.5303 73.7998C95.5811 78.1455 96.9971 82.4668 97.7783 86.7637C98.6084 91.0117 99.0234 95.3818 99.0234 99.874C99.0234 114.669 94.873 126.51 86.5723 135.396C78.2715 144.283 66.3086 148.727 50.6836 148.727L38.6719 148.58C38.1836 128.316 37.9395 113.18 37.9395 103.17C37.9395 85.0547 38.2324 68.1602 38.8184 52.4863ZM54.5654 157.003C38.208 157.003 21.875 157.198 5.56641 157.589C4.3457 154.22 4.3457 151.07 5.56641 148.141C16.1621 147.066 21.5088 145.626 21.6064 143.819C22.1924 128.487 22.4854 113.131 22.4854 97.75C22.4854 82.0273 22.2412 68.4287 21.7529 56.9541C21.6553 55.1475 16.2109 53.707 5.41992 52.6328C4.58984 49.5078 4.6875 46.3584 5.71289 43.1846C11.7188 43.2822 30.4199 43.3311 61.8164 43.3311C68.6035 43.3311 74.8291 43.7461 80.4932 44.5762C86.2061 45.4062 92.0166 47.0908 97.9248 49.6299C103.833 52.1201 108.813 55.3916 112.866 59.4443C116.919 63.4971 120.215 68.9658 122.754 75.8506C125.293 82.7354 126.562 90.792 126.562 100.021C126.562 108.81 125.073 116.598 122.095 123.385C119.116 130.172 115.21 135.641 110.376 139.791C105.591 143.941 99.9512 147.359 93.457 150.045C86.9629 152.682 80.5664 154.488 74.2676 155.465C67.9688 156.49 61.4014 157.003 54.5654 157.003ZM50.0977 55.123C49.5117 72.2617 49.2188 88.2773 49.2188 103.17C49.2188 115.279 49.4141 129.464 49.8047 145.724C65.1855 145.333 76.7334 141.012 84.4482 132.76C92.1631 124.508 96.0205 113.546 96.0205 99.874C96.0205 94.5518 95.3857 89.4736 94.1162 84.6396C92.8467 79.7568 90.8203 75.0205 88.0371 70.4307C85.2539 65.8408 81.1768 62.1299 75.8057 59.2979C70.4834 56.417 64.209 54.8789 56.9824 54.6836C54.5898 54.6836 52.2949 54.8301 50.0977 55.123ZM7.61719 154.439C18.1152 154.146 32.0312 154 49.3652 154C55.5664 154 61.5479 153.536 67.3096 152.608C73.1201 151.632 79.0039 149.874 84.9609 147.335C90.918 144.796 96.0693 141.573 100.415 137.667C104.761 133.761 108.325 128.561 111.108 122.066C113.94 115.572 115.356 108.175 115.356 99.874C115.356 64.1807 95.752 46.334 56.543 46.334C52.9297 46.334 47.8027 46.4072 41.1621 46.5537C34.5215 46.7002 28.4912 46.7734 23.0713 46.7734C17.7002 46.7734 12.5977 46.627 7.76367 46.334C7.37305 47.2129 7.37305 48.3604 7.76367 49.7764C18.9941 50.8506 24.6582 53.1943 24.7559 56.8076C25.2441 68.2822 25.4883 81.9297 25.4883 97.75C25.4883 113.229 25.1953 128.634 24.6094 143.966C24.5117 147.579 18.8477 149.923 7.61719 150.997C7.12891 152.12 7.12891 153.268 7.61719 154.439Z" fill="#cbd5e1"/>
<path d="M275.724 157.003C283.146 157.003 290.738 155.318 298.502 151.949C306.314 148.531 312.491 143.526 317.032 136.935C317.032 136.3 316.739 135.763 316.153 135.323C315.616 134.884 315.006 134.664 314.322 134.664C306.998 143.551 296.231 147.994 282.022 147.994C267.032 147.994 255.704 143.478 248.038 134.444C240.421 125.362 236.612 114.083 236.612 100.606C236.612 94.5029 237.271 88.6191 238.59 82.9551C239.957 77.2422 242.057 71.7979 244.889 66.6221C247.77 61.3975 251.847 57.1738 257.12 53.9512C262.442 50.7285 268.644 49.1172 275.724 49.1172C280.558 49.1172 285.025 49.874 289.127 51.3877C293.229 52.9014 296.598 54.6836 299.234 56.7344C301.871 58.7852 304.435 61.5439 306.925 65.0107C309.464 68.4287 311.368 71.4072 312.638 73.9463C313.956 76.4365 315.519 79.6104 317.325 83.4678C318.79 83.2725 319.693 82.7354 320.035 81.8564C316.422 67.3545 310.953 57.418 303.629 52.0469C296.354 46.627 287.052 43.917 275.724 43.917C271.134 43.917 266.446 44.4785 261.661 45.6016C256.876 46.6758 251.944 48.6289 246.866 51.4609C241.837 54.2441 237.394 57.7109 233.536 61.8613C229.679 65.9629 226.505 71.3828 224.015 78.1211C221.524 84.8105 220.279 92.3057 220.279 100.606C220.279 108.907 221.524 116.402 224.015 123.092C226.505 129.781 229.679 135.177 233.536 139.278C237.394 143.38 241.837 146.822 246.866 149.605C251.944 152.34 256.876 154.244 261.661 155.318C266.446 156.441 271.134 157.003 275.724 157.003ZM315.494 86.7637C313.395 82.0762 311.466 78.2188 309.708 75.1914C307.95 72.1152 305.606 68.6973 302.677 64.9375C299.747 61.1289 296.256 58.1748 292.203 56.0752C288.15 53.9756 283.609 52.7061 278.58 52.2666C273.014 52.7061 268.155 54.4883 264.005 57.6133C259.854 60.6895 256.632 64.6445 254.337 69.4785C252.091 74.3125 250.431 79.3418 249.356 84.5664C248.331 89.7422 247.818 95.0889 247.818 100.606C247.818 112.911 250.919 123.238 257.12 131.588C263.321 139.938 272.574 144.405 284.879 144.991C296.793 144.405 306.144 139.962 312.931 131.661C314.835 131.661 316.495 132.296 317.911 133.565C319.327 134.786 320.035 136.251 320.035 137.96C315.104 145.138 308.438 150.606 300.04 154.366C291.642 158.126 283.536 160.006 275.724 160.006C270.841 160.006 265.885 159.42 260.855 158.248C255.875 157.125 250.699 155.123 245.328 152.242C240.006 149.312 235.294 145.675 231.192 141.329C227.091 136.983 223.746 131.295 221.158 124.264C218.57 117.184 217.276 109.298 217.276 100.606C217.276 91.5244 218.619 83.4189 221.305 76.29C223.99 69.1123 227.433 63.375 231.632 59.0781C235.831 54.7812 240.738 51.2168 246.354 48.3848C251.969 45.5039 257.413 43.5508 262.687 42.5254C268.009 41.4512 273.355 40.9141 278.727 40.9141C286.051 40.9141 294.01 41.8906 302.604 43.8438C311.197 45.7969 317.35 47.0176 321.061 47.5059C319.449 53.8047 318.814 59.3467 319.156 64.1318C319.498 68.8682 320.89 74.6787 323.331 81.5635C321.915 84.4443 319.303 86.1777 315.494 86.7637Z" fill="#cbd5e1"/>
</svg>
